<svg xmlns="http://www.w3.org/2000/svg" viewBox="0 0 397.19 389.448">
<g id="Group_42" data-name="Group 42" transform="translate(-154.32 -3978.731)">
<g id="Ellipse_19" data-name="Ellipse 19" transform="translate(410.545 4094.984) rotate(90)" fill="none"
stroke="#6246e5" stroke-width="1">
<ellipse cx="126.218" cy="126.039" rx="126.218" ry="126.039" stroke="none" />
<ellipse cx="126.218" cy="126.039" rx="125.718" ry="125.539" fill="none" />
</g>
<g id="Ellipse_20" data-name="Ellipse 20" transform="translate(438.738 4070.073) rotate(90)" fill="none"
stroke="#6246e5" stroke-width="1">
<ellipse cx="141.165" cy="140.965" rx="141.165" ry="140.965" stroke="none" />
<ellipse cx="141.165" cy="140.965" rx="140.665" ry="140.465" fill="none" />
</g>
<g id="Ellipse_21" data-name="Ellipse 21" transform="translate(462.785 4048.483) rotate(90)" fill="none"
stroke="#6246e5" stroke-width="1">
<ellipse cx="154.451" cy="154.232" rx="154.451" ry="154.232" stroke="none" />
<ellipse cx="154.451" cy="154.232" rx="153.951" ry="153.732" fill="none" />
</g>
<g id="Ellipse_22" data-name="Ellipse 22" transform="translate(490.149 4028.554) rotate(90)" fill="none"
stroke="#6246e5" stroke-width="1">
<ellipse cx="166.076" cy="165.841" rx="166.076" ry="165.841" stroke="none" />
<ellipse cx="166.076" cy="165.841" rx="165.576" ry="165.341" fill="none" />
</g>
<g id="Ellipse_23" data-name="Ellipse 23" transform="translate(516.683 4009.455) rotate(90)" fill="none"
stroke="#6246e5" stroke-width="1">
<ellipse cx="177.286" cy="177.036" rx="177.286" ry="177.036" stroke="none" />
<ellipse cx="177.286" cy="177.036" rx="176.786" ry="176.536" fill="none" />
</g>
<g id="Ellipse_24" data-name="Ellipse 24" transform="translate(551.51 3978.731) rotate(90)" fill="none"
stroke="#6246e5" stroke-width="1">
<ellipse cx="194.724" cy="194.449" rx="194.724" ry="194.449" stroke="none" />
<ellipse cx="194.724" cy="194.449" rx="194.224" ry="193.949" fill="none" />
</g>
</g>
</svg>